<?xml version="1.0" encoding="UTF-8" standalone="no"?>
<svg width="18px" height="17px" viewBox="0 0 18 17" version="1.1" xmlns="http://www.w3.org/2000/svg" xmlns:xlink="http://www.w3.org/1999/xlink">
    <!-- Generator: Sketch 47.1 (45422) - http://www.bohemiancoding.com/sketch -->
    <title>flag-black-shape</title>
    <desc>Created with Sketch.</desc>
    <defs></defs>
    <g id="Teacher-Panel-&gt;-Submissions" stroke="none" stroke-width="1" fill="none" fill-rule="evenodd">
        <g id="Teacher-Controls" transform="translate(-1318.000000, -220.000000)" fill-rule="nonzero" fill="#D7D7D7">
            <g id="flag-black-shape" transform="translate(1318.000000, 220.000000)">
                <path d="M2.56074434,0.4150218 C2.26774304,0.138508583 1.91415475,0 1.50018472,0 C1.08605049,0 0.73250325,0.138624879 0.439460902,0.4150218 C0.146582746,0.691767609 0,1.0256923 0,1.41675712 C0,1.94795866 0.2499008,2.35383184 0.749989738,2.63418283 L0.749989738,16.6459173 C0.749989738,16.7418616 0.787015119,16.8248969 0.861394267,16.8949459 C0.935568174,16.9649949 1.02349319,17 1.12504618,17 L1.87503592,17 C1.9765889,17 2.06447287,16.9652662 2.13868783,16.8949459 C2.21294383,16.8248969 2.25001026,16.7418616 2.25001026,16.6459173 L2.25001026,2.63418283 C2.7501813,2.35367678 3,1.9479199 3,1.41675712 C3,1.0258086 2.85358145,0.69192267 2.56074434,0.4150218 Z" id="Shape"></path>
                <path d="M17.8065502,1.22271553 C17.6773457,1.07425219 17.5244061,1 17.3477671,1 C17.2595725,1 17.0744032,1.08196884 16.7924733,1.24611175 C16.5106147,1.41025466 16.2115884,1.59377127 15.8957155,1.79686682 C15.5800925,2.00000342 15.2061133,2.18347899 14.7749557,2.3476219 C14.3435483,2.51176481 13.9443707,2.59373365 13.5777083,2.59373365 C13.2378862,2.59373365 12.9390026,2.51948145 12.680665,2.3711002 C11.824703,1.91011271 11.081099,1.5663115 10.4491391,1.33973765 C9.81739335,1.11320484 9.13810604,1 8.41117012,1 C7.15431728,1 5.72432328,1.4686631 4.12111673,2.40615348 C3.72697162,2.63272733 3.45867597,2.80072857 3.31601565,2.91007508 C3.10536234,3.08985651 3,3.30456808 3,3.55462024 L3,12.2498846 C3,12.4529801 3.06467363,12.6289853 3.19377106,12.7772024 C3.32269002,12.9257889 3.4756653,13 3.65230427,13 C3.76095026,13 3.8728799,12.9649057 3.98848581,12.8946349 C5.83632431,11.7539259 7.41240506,11.1836329 8.71676374,11.1836329 C9.21263063,11.1836329 9.69664781,11.2695832 10.1686368,11.4413607 C10.6408043,11.6132613 11.0331649,11.8008414 11.3456113,12.0037728 C11.6583076,12.2068684 12.0266832,12.3945717 12.4512735,12.5664723 C12.8760779,12.7380035 13.2955285,12.8240769 13.7098395,12.8240769 C14.7561104,12.8240769 16.0095725,12.3710934 17.4700474,11.4646748 C17.6536463,11.3553693 17.7875978,11.2480751 17.8725087,11.1425459 C17.957491,11.0370987 18,10.8867883 18,10.6912452 L18,1.74978707 C18.0000357,1.54673257 17.9355405,1.37109678 17.8065502,1.22271553 Z" id="Shape"></path>
            </g>
        </g>
    </g>
</svg>