<?xml version="1.0" encoding="UTF-8" standalone="no"?>
<svg width="16px" height="14px" viewBox="0 0 16 14" version="1.1" xmlns="http://www.w3.org/2000/svg" xmlns:xlink="http://www.w3.org/1999/xlink">
    <!-- Generator: Sketch 47.1 (45422) - http://www.bohemiancoding.com/sketch -->
    <title>flag-black-shape</title>
    <desc>Created with Sketch.</desc>
    <defs></defs>
    <g id="Teacher-Panel-&gt;-Submissions" stroke="none" stroke-width="1" fill="none" fill-rule="evenodd">
        <g id="Teacher-Hierarchy" transform="translate(-1790.000000, -445.000000)" fill-rule="nonzero" fill="#F44336">
            <g id="flag-black-shape" transform="translate(1790.000000, 445.000000)">
                <path d="M2.56074434,0.341782659 C2.26774304,0.114065892 1.91415475,0 1.50018472,0 C1.08605049,0 0.73250325,0.114161665 0.439460902,0.341782659 C0.146582746,0.569690972 0,0.844687779 0,1.16674116 C0,1.60420125 0.2499008,1.93844975 0.749989738,2.16932703 L0.749989738,13.7084025 C0.749989738,13.7874154 0.787015119,13.8557975 0.861394267,13.9134849 C0.935568174,13.9711723 1.02349319,14 1.12504618,14 L1.87503592,14 C1.9765889,14 2.06447287,13.9713957 2.13868783,13.9134849 C2.21294383,13.8557975 2.25001026,13.7874154 2.25001026,13.7084025 L2.25001026,2.16932703 C2.7501813,1.93832205 3,1.60416933 3,1.16674116 C3,0.844783553 2.85358145,0.569818669 2.56074434,0.341782659 Z" id="Shape"></path>
                <path d="M15.8323435,1.18559628 C15.7203662,1.06187683 15.5878186,1 15.4347315,1 C15.3582962,1 15.1978161,1.06830737 14.9534769,1.20509312 C14.7091994,1.34187888 14.4500433,1.49480939 14.1762868,1.66405569 C13.9027468,1.83333618 13.5786315,1.98623249 13.2049616,2.12301825 C12.8310752,2.25980401 12.4851212,2.32811137 12.1673472,2.32811137 C11.8728347,2.32811137 11.6138023,2.26623454 11.3899097,2.1425835 C10.648076,1.75842725 10.0036191,1.47192625 9.45592056,1.28311471 C8.90840757,1.09433736 8.3196919,1 7.68968077,1 C6.60040831,1 5.36108018,1.39055258 3.9716345,2.17179456 C3.63004207,2.36060611 3.39751918,2.50060714 3.27388023,2.59172923 C3.09131403,2.74154709 3,2.9204734 3,3.1288502 L3,10.3749038 C3,10.5441501 3.05605048,10.6908211 3.16793492,10.8143353 C3.27966469,10.9381574 3.41224326,11 3.56533036,11 C3.65949022,11 3.75649592,10.9707547 3.8566877,10.9121958 C5.45814773,9.9616049 6.82408438,9.48636076 7.95452858,9.48636076 C8.38427988,9.48636076 8.80376144,9.55798601 9.2128186,9.7011339 C9.62203043,9.8443844 9.96207621,10.0007012 10.2328631,10.1698107 C10.5038666,10.339057 10.8231255,10.4954764 11.1911037,10.6387269 C11.5592675,10.7816695 11.9227914,10.8533974 12.2818609,10.8533974 C13.188629,10.8533974 14.2749629,10.4759111 15.5407077,9.72056233 C15.6998268,9.62947444 15.8159181,9.5400626 15.8895075,9.45212156 C15.9631589,9.36424894 16,9.23899027 16,9.07603769 L16,1.62482256 C16.0000309,1.45561047 15.9441351,1.30924732 15.8323435,1.18559628 Z" id="Shape"></path>
            </g>
        </g>
    </g>
</svg>