<svg width="57px" height="52px" viewBox="0 0 57 52" version="1.1" xmlns="http://www.w3.org/2000/svg" xmlns:xlink="http://www.w3.org/1999/xlink">
    <!-- Generator: Sketch 50.2 (55047) - http://www.bohemiancoding.com/sketch -->
    <desc>Created with Sketch.</desc>
    <defs></defs>
    <g id="Admin-Panel-&gt;-Course-Creator" stroke="none" stroke-width="1" fill="none" fill-rule="evenodd">
        <g id="Courses-Library-&gt;-Tutorials" transform="translate(-258.000000, -84.000000)">
            <g id="Group-2" transform="translate(258.000000, 84.000000)">
                <rect id="Rectangle-14" fill="#31A0E5" x="0" y="0" width="57" height="52" rx="2"></rect>
                <g id="add" transform="translate(9.000000, 6.000000)" fill="#FFFFFF" fill-rule="nonzero">
                    <path d="M20.0172265,0 C8.99224806,0 0,8.96551724 0,20 C0,31.0344828 8.957795,40 20.0172265,40 C31.042205,40 40,31.0344828 40,20 C40,8.96551724 31.042205,0 20.0172265,0 Z M20.0172265,37.2068966 C10.5426357,37.2068966 2.82515073,29.4827586 2.82515073,20 C2.82515073,10.5172414 10.5426357,2.79310345 20.0172265,2.79310345 C29.4918174,2.79310345 37.2093023,10.5172414 37.2093023,20 C37.2093023,29.4827586 29.4918174,37.2068966 20.0172265,37.2068966 Z" id="Shape"></path>
                    <path d="M28.6022727,18.1363636 L20.8977273,18.1363636 L20.8977273,10.3977273 C20.8977273,9.61363636 20.2840909,9 19.5,9 C18.7159091,9 18.1022727,9.61363636 18.1022727,10.3977273 L18.1022727,18.1022727 L10.3977273,18.1022727 C9.61363636,18.1022727 9,18.7159091 9,19.5 C9,20.2840909 9.61363636,20.8977273 10.3977273,20.8977273 L18.1022727,20.8977273 L18.1022727,28.6022727 C18.1022727,29.3863636 18.7159091,30 19.5,30 C20.2840909,30 20.8977273,29.3863636 20.8977273,28.6022727 L20.8977273,20.8977273 L28.6022727,20.8977273 C29.3863636,20.8977273 30,20.2840909 30,19.5 C30,18.7159091 29.3863636,18.1363636 28.6022727,18.1363636 Z" id="Shape"></path>
                </g>
            </g>
        </g>
    </g>
</svg>
