<svg width="44" height="44" viewBox="0 0 44 44" version="1.1" xmlns="http://www.w3.org/2000/svg" xmlns:xlink="http://www.w3.org/1999/xlink">
<title>video</title>
<desc>Created using Figma</desc>
<g id="Canvas" transform="translate(-6095 244)">
<g id="video">
<g id="Shape">
<use xlink:href="#path0_fill" transform="translate(6095 -244)" fill="#FFFFFF"/>
</g>
</g>
</g>
<defs>
<path id="path0_fill" fill-rule="evenodd" d="M 1.55371 44L 9.81592 44L 34.1841 44L 42.4463 44C 43.3179 44 44 43.3178 44 42.4462L 44 1.55383C 44 0.682175 43.3179 0 42.4463 0L 1.55371 0C 0.682129 0 0 0.682175 0 1.55383L 0 42.4462C 0 43.3178 0.720215 44 1.55371 44ZM 35.7383 3.10767L 40.8926 3.10767L 40.8926 10.2326L 35.7383 10.2326L 35.7383 3.10767ZM 40.8921 13.3402L 35.7383 13.3402L 35.7002 13.3402L 35.7002 20.4651L 39.2627 20.4651L 40.8921 20.4651L 40.8921 13.3402ZM 35.814 23.5728L 39.3384 23.5728L 40.9678 23.5728L 40.9678 30.6977L 35.814 30.6977L 35.814 23.5728ZM 40.8926 33.8053L 35.7383 33.8053L 35.7383 40.9302L 40.8926 40.9302L 40.8926 33.8053ZM 11.3696 3.10767L 32.6304 3.10767L 32.6304 20.4651L 11.3696 20.4651L 11.3696 3.10767ZM 32.6304 23.5728L 11.3696 23.5728L 11.3696 40.9302L 32.6304 40.9302L 32.6304 23.5728ZM 3.10742 3.10767L 8.26172 3.10767L 8.26172 10.2326L 3.10742 10.2326L 3.10742 3.10767ZM 8.26172 13.3402L 3.10742 13.3402L 3.10742 20.4651L 8.26172 20.4651L 8.26172 13.3402ZM 3.10742 23.5728L 8.26172 23.5728L 8.26172 30.6977L 3.10742 30.6977L 3.10742 23.5728ZM 8.26172 33.8053L 3.10742 33.8053L 3.10742 40.9302L 8.26172 40.9302L 8.26172 33.8053Z"/>
</defs>
</svg>
