<svg width="45" height="44" viewBox="0 0 45 44" version="1.1" xmlns="http://www.w3.org/2000/svg" xmlns:xlink="http://www.w3.org/1999/xlink">
<title>open-box</title>
<desc>Created using Figma</desc>
<g id="Canvas" transform="translate(-6095 339)">
<g id="open-box">
<g id="Shape">
<use xlink:href="#path0_fill" transform="translate(6095 -339)" fill="#FFFFFF"/>
</g>
</g>
</g>
<defs>
<path id="path0_fill" fill-rule="evenodd" d="M 39.663 14.6775L 44.331 8.69436C 44.6425 8.30752 44.7201 7.81756 44.6161 7.35336C 44.4867 6.88912 44.1493 6.50228 43.7084 6.32174L 28.6147 0.132319C 27.9662 -0.125586 27.2143 0.0549564 26.7992 0.622278L 22.4682 6.14117L 18.1371 0.596521C 17.6962 0.0291081 16.9443 -0.151342 16.2958 0.132319L 1.20208 6.57965C 0.760676 6.76019 0.423761 7.17278 0.293879 7.63699C 0.164484 8.10122 0.293879 8.61703 0.605402 8.97802L 5.27337 14.6775L 0.293879 21.4601C 0.00872243 21.8469 -0.0689143 22.3627 0.0609685 22.8269C 0.190363 23.2912 0.553644 23.6522 1.02044 23.8327L 5.55902 25.509L 5.55902 36.4179C 5.55902 37.0626 5.94769 37.6299 6.54437 37.8621L 21.9755 43.8968C 22.1572 43.9741 22.3647 44 22.5463 44C 22.7275 44 22.935 43.9742 23.1166 43.8968L 38.5478 37.8621C 39.1445 37.63 39.5331 37.0626 39.5331 36.4179L 39.5331 25.4574L 43.9682 23.8327C 44.435 23.6522 44.7719 23.2912 44.9277 22.8269C 45.0834 22.3627 44.9794 21.8469 44.6943 21.4601L 39.663 14.6775ZM 28.5107 3.43337L 40.6225 8.38488L 37.0434 12.9496L 24.7504 8.23016L 28.5107 3.43337ZM 11.2905 14.9354L 22.52 18.9327L 33.6459 14.9611L 22.1313 10.5512L 11.2905 14.9354ZM 16.3993 3.45913L 20.0043 8.07537L 7.86712 12.9754L 4.3139 8.64279L 16.3993 3.45913ZM 20.0043 21.3311L 7.50384 16.8696L 4.00286 21.6406L 16.3476 26.1795L 20.0043 21.3311ZM 36.395 35.3605L 22.52 40.8021L 8.64495 35.3605L 8.64495 26.6437L 16.3735 29.4806C 16.5551 29.5322 16.7367 29.5838 16.9179 29.5838C 17.3847 29.5838 17.852 29.3517 18.163 28.9649L 22.4682 23.2396L 26.7734 28.9649C 27.0844 29.3517 27.5512 29.5838 28.018 29.5838C 28.1996 29.5838 28.3813 29.558 28.5629 29.4806L 36.395 26.618L 36.395 35.3605ZM 24.9321 21.3827L 28.5629 26.1795L 40.9076 21.6405L 37.4326 16.8953L 24.9321 21.3827Z"/>
</defs>
</svg>
