
<svg width="34px" height="32px" viewBox="0 0 34 32" version="1.1" xmlns="http://www.w3.org/2000/svg" xmlns:xlink="http://www.w3.org/1999/xlink">
    <!-- Generator: Sketch 50 (54983) - http://www.bohemiancoding.com/sketch -->
    <desc>Created with Sketch.</desc>
    <defs></defs>
    <g id="Messages" stroke="none" stroke-width="1" fill="none" fill-rule="evenodd" opacity="0.308423913">
        <g id="Add-user-to-group---Popup" transform="translate(-42.000000, -24.000000)" fill="#000000" fill-rule="nonzero">
            <g id="iconmonstr-pen-3" transform="translate(42.000000, 24.000000)">
                <path d="M19.08675,9.01236364 C18.4846667,8.37381818 18.5186667,7.37309091 19.1363333,6.75490909 L25.4560833,0.462545455 C25.7649167,0.155636364 26.1615833,0 26.554,0 C26.9535,0 27.3515833,0.16 27.6533333,0.481454545 L19.08675,9.01236364 Z M8.69691667,25.0429091 C8.56658333,25.1723636 8.5,25.3454545 8.5,25.5185455 C8.5,25.8821818 8.789,26.1818182 9.146,26.1818182 C9.3075,26.1818182 9.47041667,26.1207273 9.59508333,25.9956364 L10.6561667,24.9352727 L9.75941667,23.984 L8.69691667,25.0429091 Z M17.6644167,12.7883636 L14.0320833,16.4029091 C12.0799167,18.3461818 11.084,20.2283636 10.1645833,22.8567273 L11.76825,24.5570909 C14.3536667,23.6945455 16.2165833,22.7316364 18.16875,20.7883636 L21.7996667,17.1723636 L17.6644167,12.7883636 Z M28.2568333,1.648 L18.9011667,10.9643636 L23.613,15.9592727 L32.9686667,6.64581818 C33.65575,5.96363636 34,5.056 34,4.14690909 C34,1.10981818 30.4158333,-0.501818182 28.2568333,1.648 Z M25.5,18.1323636 L25.5,29.0909091 L2.83333333,29.0909091 L2.83333333,11.6363636 L14.1850833,11.6363636 L17.1005833,8.72727273 L0,8.72727273 L0,32 L28.3333333,32 L28.3333333,15.312 L25.5,18.1323636 Z" id="Shape"></path>
            </g>
        </g>
    </g>
</svg>
