<svg width="43" height="43" viewBox="0 0 43 43" version="1.1" xmlns="http://www.w3.org/2000/svg" xmlns:xlink="http://www.w3.org/1999/xlink">
<title>add</title>
<desc>Created using Figma</desc>
<g id="Canvas" transform="translate(-6086 -1110)">
<g id="add">
<g id="Shape">
<use xlink:href="#path0_fill" transform="translate(6086 1110)" fill="#BFBFBF"/>
</g>
<g id="Shape">
<use xlink:href="#path1_fill" transform="translate(6096 1120)" fill="#B4B4B4"/>
</g>
</g>
</g>
<defs>
<path id="path0_fill" fill-rule="evenodd" d="M 0 21.5C 0 9.63794 9.6665 0 21.5186 0C 33.3706 0 43 9.63794 43 21.5C 43 33.3621 33.3706 43 21.5186 43C 9.62939 43 0 33.3621 0 21.5ZM 3.03711 21.5C 3.03711 31.694 11.3335 39.9974 21.5186 39.9974C 31.7036 39.9974 40 31.694 40 21.5C 40 11.306 31.7036 3.00256 21.5186 3.00256C 11.3335 3.00256 3.03711 11.306 3.03711 21.5Z"/>
<path id="path1_fill" d="M 20.5357 9.57143L 12.4643 9.57143L 12.4643 1.46429C 12.4643 0.642857 11.8214 0 11 0C 10.1786 0 9.53571 0.642857 9.53571 1.46429L 9.53571 9.53571L 1.46429 9.53571C 0.642857 9.53571 0 10.1786 0 11C 0 11.8214 0.642857 12.4643 1.46429 12.4643L 9.53571 12.4643L 9.53571 20.5357C 9.53571 21.3571 10.1786 22 11 22C 11.8214 22 12.4643 21.3571 12.4643 20.5357L 12.4643 12.4643L 20.5357 12.4643C 21.3571 12.4643 22 11.8214 22 11C 22 10.1786 21.3571 9.57143 20.5357 9.57143Z"/>
</defs>
</svg>
