<?xml version="1.0" encoding="UTF-8" standalone="no"?>
<svg width="10px" height="12px" viewBox="0 0 10 12" version="1.1" xmlns="http://www.w3.org/2000/svg" xmlns:xlink="http://www.w3.org/1999/xlink">
    <!-- Generator: Sketch 47.1 (45422) - http://www.bohemiancoding.com/sketch -->
    <title>iconmonstr-file-22</title>
    <desc>Created with Sketch.</desc>
    <defs></defs>
    <g id="Courses" stroke="none" stroke-width="1" fill="none" fill-rule="evenodd">
        <g id="Courses-&gt;-Tutorial-Detail" transform="translate(-34.000000, -390.000000)" fill-rule="nonzero" fill="#000000">
            <g id="iconmonstr-file-22" transform="translate(34.000000, 390.000000)">
                <path d="M4.681,1 C6.759,1 6,4 6,4 C6,4 9,3.175 9,5.2285 L9,11 L1,11 L1,1 L4.681,1 Z M5.0945,0 L0,0 L0,12 L10,12 L10,4.807 C10,3.6115 6.676,0 5.0945,0 Z M7.5,6.5 L2.5,6.5 L2.5,6 L7.5,6 L7.5,6.5 Z M7.5,7.5 L2.5,7.5 L2.5,8 L7.5,8 L7.5,7.5 Z M7.5,9 L2.5,9 L2.5,9.5 L7.5,9.5 L7.5,9 Z" id="Shape"></path>
            </g>
        </g>
    </g>
</svg>