<svg width="19px" height="19px" viewBox="0 0 19 19" version="1.1" xmlns="http://www.w3.org/2000/svg" xmlns:xlink="http://www.w3.org/1999/xlink">
    <!-- Generator: Sketch 50.2 (55047) - http://www.bohemiancoding.com/sketch -->
    <desc>Created with Sketch.</desc>
    <defs></defs>
    <g id="Account-Settings" stroke="none" stroke-width="1" fill="none" fill-rule="evenodd">
        <g transform="translate(-560.000000, -494.000000)" fill-rule="nonzero" id="if_calendar_383171">
            <g transform="translate(560.000000, 494.000000)">
                <path d="M18.3605769,2.66666667 L16.0769231,2.66666667 L16.0769231,0.666666667 C16.0769231,0.298666667 15.7495385,0 15.3461538,0 L13.8846154,0 C13.4812308,0 13.1538462,0.298666667 13.1538462,0.666666667 L13.1538462,2.66666667 L6.21153846,2.66666667 L6.21153846,0.666666667 C6.21153846,0.298666667 5.88415385,0 5.48076923,0 L4.01923077,0 C3.61584615,0 3.28846154,0.298666667 3.28846154,0.666666667 L3.28846154,2.66666667 L0.822115385,2.66666667 C0.418730769,2.66666667 0,2.96533333 0,3.33333333 L0,6 L19,6 L19,3.33333333 C19,2.96533333 18.7639615,2.66666667 18.3605769,2.66666667 Z" id="Shape" fill="#B5B5B5"></path>
                <path d="M0,18.2666667 C0,18.6714667 0.418730769,19 0.822115385,19 L18.3605769,19 C18.7639615,19 19,18.6714667 19,18.2666667 L19,8 L0,8 L0,18.2666667 Z" id="Shape" fill="#BDBDBD"></path>
            </g>
        </g>
    </g>
</svg>
