<?xml version="1.0" encoding="UTF-8" standalone="no"?>
<svg width="12px" height="21px" viewBox="0 0 12 21" version="1.1" xmlns="http://www.w3.org/2000/svg" xmlns:xlink="http://www.w3.org/1999/xlink">
    <!-- Generator: Sketch 47.1 (45422) - http://www.bohemiancoding.com/sketch -->
    <title>iconmonstr-paperclip-1</title>
    <desc>Created with Sketch.</desc>
    <defs></defs>
    <g id="Courses" stroke="none" stroke-width="1" fill="none" fill-rule="evenodd">
        <g id="Courses-&gt;-Tutorial-Detail" transform="translate(-946.000000, -972.000000)" fill-rule="nonzero" fill="#8C8C8C">
            <g id="iconmonstr-paperclip-1" transform="translate(946.000000, 972.000000)">
                <path d="M10.2857143,4.375 L10.2857143,14.875 C10.2857143,17.287375 8.36314286,19.25 6,19.25 C3.63685714,19.25 1.71428571,17.287375 1.71428571,14.875 L1.71428571,4.375 C1.71428571,2.92775 2.868,1.75 4.28571429,1.75 C5.70342857,1.75 6.85714286,2.92775 6.85714286,4.375 L6.85714286,12.25 C6.85714286,12.732125 6.47228571,13.125 6,13.125 C5.52771429,13.125 5.14285714,12.732125 5.14285714,12.25 L5.14285714,5.25 L3.42857143,5.25 L3.42857143,12.25 C3.42857143,13.699875 4.57971429,14.875 6,14.875 C7.42028571,14.875 8.57142857,13.699875 8.57142857,12.25 L8.57142857,4.375 C8.57142857,1.959125 6.65228571,0 4.28571429,0 C1.91914286,0 0,1.959125 0,4.375 L0,14.875 C0,18.25775 2.68628571,21 6,21 C9.31371429,21 12,18.25775 12,14.875 L12,4.375 L10.2857143,4.375 Z" id="Shape"></path>
            </g>
        </g>
    </g>
</svg>