<?xml version="1.0" encoding="UTF-8" standalone="no"?>
<svg width="32px" height="32px" viewBox="0 0 32 32" version="1.1" xmlns="http://www.w3.org/2000/svg" xmlns:xlink="http://www.w3.org/1999/xlink">
    <!-- Generator: Sketch 47.1 (45422) - http://www.bohemiancoding.com/sketch -->
    <title>settings</title>
    <desc>Created with Sketch.</desc>
    <defs></defs>
    <g id="Admin-Panel-&gt;-Group-Manager" stroke="none" stroke-width="1" fill="none" fill-rule="evenodd">
        <g id="Group-Manager-&gt;-Courses---Settings-Popup" transform="translate(-40.000000, -28.000000)" fill-rule="nonzero" fill="#8D8D8D">
            <g id="settings" transform="translate(40.000000, 28.000000)">
                <path d="M30.8291054,13.6699438 L27.6592331,13.1411218 C27.4288469,12.1991922 27.0929281,11.2987983 26.6554408,10.4590117 L28.6847033,7.94286601 C29.116298,7.41111541 29.0966914,6.64600742 28.6416689,6.13279256 L27.3809555,4.71389812 C26.9239687,4.20121897 26.1661336,4.09279028 25.5880789,4.45800498 L22.877229,6.16214973 C21.6849065,5.32907738 20.3343028,4.71389812 18.8773451,4.35693343 L18.3470033,1.16996559 C18.2357208,0.49514341 17.6517735,0 16.9662934,0 L15.0664199,0 C14.3823327,0 13.7964211,0.49514341 13.6876028,1.16996559 L13.1543683,4.35793344 C11.9497961,4.65286234 10.8204003,5.1289343 9.78971592,5.755935 L7.21164788,3.91600437 C6.65602114,3.51903964 5.89286472,3.58111114 5.40798593,4.06496882 L4.06577488,5.40818461 C3.58193177,5.89307801 3.51986215,6.65625743 3.9178506,7.21190091 L5.76201137,9.79497522 C5.14092225,10.8179049 4.66975735,11.9409062 4.37487305,13.1348004 L1.16985891,13.6699795 C0.496092747,13.7812654 0,14.365266 0,15.0508025 L0,16.9492332 C0,17.6346983 0.496092747,18.2187703 1.16985891,18.3300562 L4.37487305,18.8652353 C4.61704459,19.847665 4.96860582,20.7860946 5.43587798,21.6562027 L3.41586516,24.1581341 C2.98573479,24.6893847 3.00380569,25.4549927 3.4588282,25.9677433 L4.71857736,27.3866734 C5.17559982,27.9003169 5.93382781,28.0067813 6.51195389,27.6424951 L9.2618741,25.9149932 C10.4254475,26.710887 11.7418021,27.2958519 13.1543683,27.6424951 L13.6876028,30.8299987 C13.7964568,31.5048566 14.3823327,32 15.0664199,32 L16.9662934,32 C17.6517735,32 18.2357208,31.5048923 18.3470033,30.8300344 L18.8782379,27.6425309 C20.0677748,27.3515662 21.1828496,26.88378 22.2043557,26.2675293 L24.8898492,28.1855672 C25.4444759,28.5839605 26.2082038,28.5214604 26.6925826,28.036067 L28.0353293,26.6933155 C28.518601,26.2098864 28.5840634,25.4471355 28.1827179,24.8904921 L26.2707734,22.2098105 C26.8936482,21.1834522 27.367313,20.058451 27.6603402,18.8592353 L30.8301768,18.329949 C31.5059072,18.2186632 32,17.6346268 32,16.9491261 L32,15.0506954 C31.999,14.365266 31.5049072,13.7812654 30.8291054,13.6699438 Z M16.0502485,22.0000246 C12.7373447,22.0000246 10.0504226,19.3125216 10.0504226,16.0000179 C10.0504226,12.6870142 12.7373447,10.0000112 16.0502485,10.0000112 C19.362581,10.0000112 22.050003,12.6870142 22.050003,16.0000179 C22.050003,19.3125216 19.362581,22.0000246 16.0502485,22.0000246 Z" id="settings_1_"></path>
            </g>
        </g>
    </g>
</svg>