<?xml version="1.0" encoding="UTF-8" standalone="no"?>
<svg width="17px" height="17px" viewBox="0 0 17 17" version="1.1" xmlns="http://www.w3.org/2000/svg" xmlns:xlink="http://www.w3.org/1999/xlink">
    <!-- Generator: Sketch 47.1 (45422) - http://www.bohemiancoding.com/sketch -->
    <title>settings</title>
    <desc>Created with Sketch.</desc>
    <defs></defs>
    <g id="Admin-Panel-&gt;-Group-Manager" stroke="none" stroke-width="1" fill="none" fill-rule="evenodd">
        <g id="Group-Manager-&gt;-Courses" transform="translate(-1261.000000, -299.000000)" fill-rule="nonzero" fill="#8D8D8D">
            <g id="settings" transform="translate(1261.000000, 299.000000)">
                <path d="M16.3779622,7.26215766 L14.6939676,6.98122096 C14.5715749,6.48082085 14.3931181,6.00248661 14.1607029,5.55634995 L15.2387487,4.21964757 C15.4680333,3.93715506 15.4576173,3.53069144 15.2158866,3.25804605 L14.5461326,2.50425838 C14.3033584,2.23189758 13.9007585,2.17429484 13.5936669,2.36831514 L12.1535279,3.27364205 C11.5201066,2.83107236 10.8025984,2.50425838 10.0285896,2.31462089 L9.74684552,0.62154422 C9.6877267,0.263044936 9.37750467,0 9.01334336,0 L8.0040356,0 C7.64061422,0 7.3293487,0.263044936 7.271539,0.62154422 L6.98825815,2.31515214 C6.34832918,2.47183312 5.74833766,2.72474634 5.20078658,3.05784047 L3.83118793,2.08037732 C3.53601123,1.86948981 3.13058438,1.90246529 2.87299252,2.15951469 L2.1599429,2.87309807 C1.90290126,3.13069769 1.86992677,3.53613676 2.08135813,3.83132236 L3.06106854,5.20358058 C2.73111495,5.74701199 2.48080859,6.34360641 2.32415131,6.9778627 L0.621487546,7.26217663 C0.263549272,7.32129723 0,7.63154758 0,7.99573883 L0,9.00428014 C0,9.36843345 0.263549272,9.67872174 0.621487546,9.73784234 L2.32415131,10.0221563 C2.45280494,10.544072 2.63957184,11.0426128 2.88781018,11.5048577 L1.81467837,12.8340087 C1.58617161,13.1162356 1.59577177,13.5229649 1.83750248,13.7953636 L2.50674422,14.5491703 C2.7495374,14.8220433 3.15234603,14.8786025 3.45947551,14.6850755 L4.92037061,13.7673401 C5.53851897,14.1901587 6.23783238,14.5009213 6.98825815,14.6850755 L7.271539,16.3784368 C7.32936767,16.7369551 7.64061422,17 8.0040356,17 L9.01334336,17 C9.37750467,17 9.6877267,16.736974 9.74684552,16.3784558 L10.0290639,14.6850945 C10.6610054,14.5305196 11.2533889,14.2820081 11.796064,13.9546249 L13.2227324,14.9735826 C13.5173778,15.185229 13.9231083,15.1520258 14.1804345,14.8941606 L14.8937687,14.1808239 C15.1505068,13.9240021 15.1852837,13.5187908 14.9720689,13.2230739 L13.9563484,11.7989618 C14.2872506,11.253709 14.538885,10.6560521 14.6945557,10.0189688 L16.3785314,9.73778542 C16.7375132,9.67866482 17,9.3683955 17,9.00422322 L17,7.99568191 C16.9994688,7.63154758 16.736982,7.32129723 16.3779622,7.26215766 Z M8.52669454,11.687513 C6.76671436,11.687513 5.33928703,10.2597771 5.33928703,8.50000949 C5.33928703,6.73997627 6.76671436,5.31250593 8.52669454,5.31250593 C10.2863712,5.31250593 11.7140641,6.73997627 11.7140641,8.50000949 C11.7140641,10.2597771 10.2863712,11.687513 8.52669454,11.687513 Z" id="settings_1_"></path>
            </g>
        </g>
    </g>
</svg>