<svg width="14" height="14" viewBox="0 0 14 14" version="1.1" xmlns="http://www.w3.org/2000/svg" xmlns:xlink="http://www.w3.org/1999/xlink">
<title>pencil-striped-symbol-for-interface-edit-buttons</title>
<desc>Created using Figma</desc>
<g id="Canvas" transform="translate(-7771 365)">
<g id="pencil-striped-symbol-for-interface-edit-buttons">
<g id="Shape">
<use xlink:href="#path0_fill" transform="translate(7771 -365)" fill="#FFFFFF"/>
</g>
</g>
</g>
<defs>
<path id="path0_fill" fill-rule="evenodd" d="M 13.4878 4.22513L 12.8691 4.84418L 9.15625 1.13181L 9.7749 0.512695C 10.4585 -0.170898 11.5669 -0.170898 12.2505 0.512695L 13.4878 1.75043C 14.1704 2.43362 14.1704 3.54156 13.4878 4.22513ZM 4.82471 11.6494C 4.6543 11.8202 4.6543 12.097 4.82471 12.2679C 4.99609 12.4397 5.27295 12.4397 5.44385 12.2679L 12.2505 5.46283L 11.6309 4.84372L 4.82471 11.6494ZM 1.73145 9.17468C 1.56006 9.00369 1.56006 8.72708 1.73145 8.55606L 8.53809 1.75043L 9.15674 2.36914L 2.3501 9.17468C 2.1792 9.34558 1.90234 9.34558 1.73145 9.17468ZM 9.77441 2.98737L 2.96826 9.79333C 2.62646 10.1344 2.62744 10.689 2.96826 11.0307C 3.31055 11.3725 3.86377 11.3741 4.20654 11.0298L 11.0127 4.22513L 9.77441 2.98737ZM 3.85742 12.1363C 3.89453 12.4099 3.99561 12.6754 4.20508 12.885C 4.21533 12.895 4.22607 12.9034 4.2373 12.9119L 4.26318 12.9328L 0 14L 1.06836 9.72586C 1.07617 9.73535 1.08203 9.74585 1.0874 9.75629C 1.09473 9.76941 1.10156 9.78244 1.11279 9.79333C 1.31787 9.99841 1.5791 10.1223 1.86182 10.1608L 1.8584 10.1846C 1.84766 10.2595 1.83691 10.3348 1.83691 10.4119C 1.83691 10.8794 2.01904 11.3178 2.3501 11.6494C 2.68066 11.9801 3.11963 12.1628 3.58691 12.1628C 3.67871 12.1628 3.76807 12.15 3.85742 12.1363Z"/>
</defs>
</svg>
