<?xml version="1.0" encoding="UTF-8" standalone="no"?>
<svg width="9px" height="12px" viewBox="0 0 9 12" version="1.1" xmlns="http://www.w3.org/2000/svg" xmlns:xlink="http://www.w3.org/1999/xlink">
    <!-- Generator: Sketch 47.1 (45422) - http://www.bohemiancoding.com/sketch -->
    <title>pause-button</title>
    <desc>Created with Sketch.</desc>
    <defs></defs>
    <g id="Admin-Panel-&gt;-Group-Manager" stroke="none" stroke-width="1" fill="none" fill-rule="evenodd">
        <g id="Group-Manager-&gt;-Courses" transform="translate(-1097.000000, -302.000000)" fill-rule="nonzero" fill="#8C8C8C">
            <g id="pause-button" transform="translate(1097.000000, 302.000000)">
                <path d="M7.5,0 C6.67133333,0 6,0.262114286 6,1.11428571 L6,10.8857143 C6,11.7378857 6.67133333,12 7.5,12 C8.3285,12 9,11.7378857 9,10.8857143 L9,1.11428571 C9,0.262114286 8.3285,0 7.5,0 Z" id="Shape"></path>
                <path d="M1.5,0 C0.671333333,0 0,0.262114286 0,1.11428571 L0,10.8857143 C0,11.7378857 0.671333333,12 1.5,12 C2.3285,12 3,11.7378857 3,10.8857143 L3,1.11428571 C3,0.262114286 2.3285,0 1.5,0 Z" id="Shape"></path>
            </g>
        </g>
    </g>
</svg>