<?xml version="1.0" encoding="UTF-8" standalone="no"?>
<svg width="37px" height="34px" viewBox="0 0 37 34" version="1.1" xmlns="http://www.w3.org/2000/svg" xmlns:xlink="http://www.w3.org/1999/xlink">
    <!-- Generator: Sketch 46.1 (44463) - http://www.bohemiancoding.com/sketch -->
    <title>Logo Icon</title>
    <desc>Created with Sketch.</desc>
    <defs>
        <polygon id="path-1" points="7.79966213 33.9506173 15.5539008 33.9506173 15.5539008 0.190938272 0.0454234683 0.190938272 0.0454234683 33.9506173"></polygon>
    </defs>
    <g id="Symbols" stroke="none" stroke-width="1" fill="none" fill-rule="evenodd">
        <g id="Logo-Icon">
            <g id="Page-1">
                <g>
                    <path d="M0.252738764,25.3174914 L2.69408534e-05,0.84425679 C-0.0037448774,0.4708 0.390140714,0.2288 0.717480655,0.403985185 L15.5870659,8.35440494 L15.6490314,14.364479 L4.80559281,8.26803457 C4.47825286,8.08388642 4.07520714,8.3250716 4.07924838,8.70341728 L4.12154662,12.7984049 C4.12343253,12.9746765 4.21853624,13.1365531 4.37102546,13.2229235 L15.642296,19.5942321 L15.690252,24.2356889 L4.90877898,18.1411457 C4.5809002,17.9559111 4.17731565,18.1970963 4.18108747,18.5759852 L4.22176922,22.5115407 C4.22365513,22.6883556 4.31929767,22.8505037 4.47232572,22.9366025 L15.8034066,29.3073679 L15.8513625,33.9488247 L0.512455391,25.747442 C0.354308441,25.6629728 0.254624673,25.4981086 0.252738764,25.3174914" id="Fill-1" fill="#3285D8"></path>
                    <g id="Group-5" transform="translate(20.475585, 0.080667)">
                        <mask id="mask-2" fill="white">
                            <use xlink:href="#path-1"></use>
                        </mask>
                        <g id="Clip-4"></g>
                        <path d="M0.0454234683,33.9506173 L0.0454234683,29.3088889 L11.3080728,22.8205185 C11.4616396,22.7322469 11.5562045,22.5676543 11.5562045,22.3894815 L11.5562045,18.4628889 C11.5562045,18.0810123 11.1466928,17.842 10.8182752,18.0323951 L0.106311391,24.2361235 L0.106311391,19.5943951 L11.3091504,13.1062963 C11.4619091,13.0177531 11.5562045,12.8537037 11.5562045,12.6758025 L11.5562045,8.58977778 C11.5562045,8.20844444 11.1475011,7.9694321 10.8190835,8.15874074 L0.0454234683,14.3651852 L0.0454234683,8.3545679 L14.8261015,0.251777778 C15.1542497,0.0719753086 15.5540624,0.311530864 15.5540624,0.688246914 L15.5540624,25.1536049 C15.5540624,25.3355802 15.4551869,25.5028889 15.2967706,25.5898025 L0.0454234683,33.9506173 Z" id="Fill-3" fill="#186FB7" mask="url(#mask-2)"></path>
                    </g>
                </g>
            </g>
        </g>
    </g>
</svg>