<?xml version="1.0" encoding="UTF-8" standalone="no"?>
<svg width="14px" height="12px" viewBox="0 0 14 12" version="1.1" xmlns="http://www.w3.org/2000/svg" xmlns:xlink="http://www.w3.org/1999/xlink">
    <!-- Generator: Sketch 47.1 (45422) - http://www.bohemiancoding.com/sketch -->
    <title>iconmonstr-book-19</title>
    <desc>Created with Sketch.</desc>
    <defs></defs>
    <g id="Courses" stroke="none" stroke-width="1" fill="none" fill-rule="evenodd">
        <g id="Courses-&gt;-Tutorial-Detail" transform="translate(-32.000000, -413.000000)" fill-rule="nonzero" fill="#000000">
            <g id="iconmonstr-book-19" transform="translate(32.000000, 413.000000)">
                <path d="M7,1.6236 C5.28616667,0.5256 2.674,0.084 0,2.66453526e-16 L0,10.6284 C2.29658333,10.7004 4.54708333,11.037 6.22241667,11.8254 C6.71591667,12.0582 7.28233333,12.0582 7.77816667,11.8254 C9.4535,11.037 11.7034167,10.7004 14,10.6284 L14,0 C11.326,0.084 8.71383333,0.5256 7,1.6236 Z M1.16666667,9.486 L1.16666667,1.2636 C4.17491667,1.497 5.55741667,2.1414 6.41666667,2.664 L6.41666667,10.5648 C5.52708333,10.2372 3.66566667,9.6624 1.16666667,9.486 L1.16666667,9.486 Z M12.8333333,9.486 C10.3349167,9.6618 8.47291667,10.2372 7.58333333,10.5654 L7.58333333,2.6628 C8.43091667,2.1462 9.8175,1.4976 12.8333333,1.2636 L12.8333333,9.486 Z M11.6666667,3.3576 C10.4498333,3.5448 9.07025,3.9714 8.16666667,4.3608 L8.16666667,3.7224 C9.13966667,3.3492 10.4305833,2.9334 11.6666667,2.7468 L11.6666667,3.3576 L11.6666667,3.3576 Z M11.6666667,5.1906 C10.4305833,5.3772 9.13966667,5.793 8.16666667,6.1662 L8.16666667,6.8046 C9.07025,6.4152 10.4498333,5.988 11.6666667,5.8008 L11.6666667,5.1906 Z M11.6666667,3.972 C10.4305833,4.1586 9.13966667,4.5744 8.16666667,4.9476 L8.16666667,5.586 C9.07025,5.1966 10.4498333,4.7694 11.6666667,4.5822 L11.6666667,3.972 Z M11.6666667,7.6278 C10.4305833,7.8144 9.13966667,8.2302 8.16666667,8.6034 L8.16666667,9.2418 C9.07025,8.8524 10.4498333,8.4252 11.6666667,8.238 L11.6666667,7.6278 L11.6666667,7.6278 Z M11.6666667,6.4092 C10.4305833,6.5958 9.13966667,7.0116 8.16666667,7.3848 L8.16666667,8.0232 C9.07025,7.6338 10.4498333,7.2066 11.6666667,7.0194 L11.6666667,6.4092 Z M2.33333333,2.7468 C3.56941667,2.9334 4.86033333,3.3492 5.83333333,3.7224 L5.83333333,4.3608 C4.92975,3.9714 3.55016667,3.5442 2.33333333,3.3576 L2.33333333,2.7468 L2.33333333,2.7468 Z M2.33333333,5.8008 C3.55016667,5.988 4.92975,6.4146 5.83333333,6.8046 L5.83333333,6.1662 C4.86033333,5.793 3.56941667,5.3772 2.33333333,5.1906 L2.33333333,5.8008 Z M2.33333333,4.5822 C3.55016667,4.7694 4.92975,5.196 5.83333333,5.586 L5.83333333,4.9476 C4.86033333,4.5744 3.56941667,4.158 2.33333333,3.972 L2.33333333,4.5822 Z M2.33333333,8.238 C3.55016667,8.4252 4.92975,8.8518 5.83333333,9.2418 L5.83333333,8.6034 C4.86033333,8.2302 3.56941667,7.8144 2.33333333,7.6278 L2.33333333,8.238 Z M2.33333333,7.0194 C3.55016667,7.2066 4.92975,7.6332 5.83333333,8.0232 L5.83333333,7.3848 C4.86033333,7.0116 3.56941667,6.5958 2.33333333,6.4092 L2.33333333,7.0194 Z" id="Shape"></path>
            </g>
        </g>
    </g>
</svg>