<?xml version="1.0" encoding="UTF-8" standalone="no"?>
<svg width="27px" height="27px" viewBox="0 0 27 27" version="1.1" xmlns="http://www.w3.org/2000/svg" xmlns:xlink="http://www.w3.org/1999/xlink">
    <!-- Generator: Sketch 47.1 (45422) - http://www.bohemiancoding.com/sketch -->
    <title>play-button</title>
    <desc>Created with Sketch.</desc>
    <defs></defs>
    <g id="Teacher-Panel-&gt;-User-Manager" stroke="none" stroke-width="1" fill="none" fill-rule="evenodd">
        <g id="Teacher-Controls" transform="translate(-536.000000, -489.000000)" fill-rule="nonzero" fill="#000000">
            <g id="play-button" transform="translate(536.000000, 489.000000)">
                <path d="M25.1889562,6.75103583 C21.4617031,0.295150204 13.2063138,-1.91693307 6.75102023,1.81105181 C0.295210861,5.53783312 -1.91693225,13.7929761 1.81100859,20.2486038 C5.53774588,26.7044894 13.7928773,28.9169166 20.2482568,25.1892756 C26.7041522,21.4612047 28.9173269,13.2064916 25.1889562,6.75103583 Z M18.8988083,22.8506451 C13.7349345,25.8331018 7.13022757,24.063332 4.14866581,18.8983656 C1.1664163,13.7344308 2.93676695,7.12973184 8.10081267,4.14873664 C13.2650303,1.1664519 19.8693934,2.93604974 22.8511271,8.10084421 C25.8329467,13.2655527 24.0631119,19.8688762 18.8988083,22.8506451 Z M18.3590117,12.9513339 L11.2911921,8.8291785 C10.6471156,8.45314755 10.1276075,8.75378318 10.1312182,9.49879556 L10.167411,17.6808644 C10.1706778,18.4257048 10.6965475,18.7289195 11.3425153,18.3558116 L18.3562607,14.3063864 C19.0015407,13.9339662 19.0029162,13.3273648 18.3590117,12.9513339 Z" id="Shape"></path>
            </g>
        </g>
    </g>
</svg>