<svg width="13" height="13" viewBox="0 0 13 13" version="1.1" xmlns="http://www.w3.org/2000/svg" xmlns:xlink="http://www.w3.org/1999/xlink">
<title>settings</title>
<desc>Created using Figma</desc>
<g id="Canvas" transform="translate(-7891 365)">
<g id="settings">
<g id="settings_1_">
<use xlink:href="#path0_fill" transform="translate(7891 -365)" fill="#FFFFFF"/>
</g>
</g>
</g>
<defs>
<path id="path0_fill" fill-rule="evenodd" d="M 11.2363 5.33859L 12.5244 5.55341C 12.7988 5.59863 12.9995 5.83588 13 6.11435L 13 6.88559C 13 7.16406 12.7993 7.40134 12.5249 7.44653L 11.2368 7.66156C 11.1182 8.14874 10.9258 8.60577 10.6724 9.02274L 11.4492 10.1118C 11.6123 10.3379 11.5854 10.6478 11.3892 10.8441L 10.8438 11.3896C 10.647 11.5869 10.3369 11.6122 10.1113 11.4504L 9.02051 10.6712C 8.60547 10.9215 8.15234 11.1116 7.66943 11.2298L 7.45361 12.5247C 7.4082 12.7989 7.1709 13 6.89258 13L 6.12061 13C 5.84277 13 5.60498 12.7989 5.56055 12.5247L 5.34375 11.2298C 4.77002 11.0889 4.23535 10.8513 3.7627 10.528L 2.64551 11.2298C 2.41064 11.3777 2.10254 11.3345 1.91699 11.1258L 1.40527 10.5494C 1.22021 10.3411 1.21289 10.0301 1.3877 9.81424L 2.2085 8.79782C 2.01855 8.44434 1.87549 8.06311 1.77734 7.664L 0.475098 7.44659C 0.20166 7.40137 0 7.16409 0 6.88562L 0 6.11438C 0 5.83588 0.20166 5.59863 0.475098 5.55344L 1.77734 5.336C 1.89697 4.85098 2.08838 4.39478 2.34082 3.97922L 1.5918 2.92984C 1.43018 2.7041 1.45508 2.39407 1.65186 2.19708L 2.19678 1.6514C 2.39404 1.45483 2.7041 1.4296 2.92969 1.59088L 3.97705 2.33835C 4.396 2.08362 4.85449 1.89023 5.34375 1.77042L 5.56055 0.475311C 5.60498 0.201141 5.84277 0 6.12061 0L 6.89258 0C 7.1709 0 7.4082 0.201141 7.45361 0.475311L 7.66895 1.76999C 8.26074 1.91501 8.80957 2.16495 9.29395 2.50339L 10.395 1.81107C 10.6299 1.66269 10.938 1.70676 11.1235 1.91501L 11.6357 2.49146C 11.8203 2.69995 11.8286 3.01077 11.6533 3.22678L 10.8286 4.24896C 11.0063 4.59015 11.1431 4.95593 11.2363 5.33859ZM 4.08301 6.5C 4.08301 7.8457 5.1748 8.9375 6.52051 8.9375C 7.86621 8.9375 8.95801 7.8457 8.95801 6.5C 8.95801 5.15408 7.86621 4.0625 6.52051 4.0625C 5.1748 4.0625 4.08301 5.15408 4.08301 6.5Z"/>
</defs>
</svg>
