<svg width="47" height="45" viewBox="0 0 47 45" version="1.1" xmlns="http://www.w3.org/2000/svg" xmlns:xlink="http://www.w3.org/1999/xlink">
<title>online-course</title>
<desc>Created using Figma</desc>
<g id="Canvas" transform="translate(-6094 463)">
<g id="online-course">
<g id="Shape">
<use xlink:href="#path0_fill" transform="translate(6094 -463)" fill="#FFFFFF"/>
</g>
<g id="Shape">
<use xlink:href="#path1_fill" transform="translate(6099 -430)" fill="#FFFFFF"/>
</g>
</g>
</g>
<defs>
<path id="path0_fill" fill-rule="evenodd" d="M 0 43.4522C 0 44.3069 0.700195 45 1.56396 45L 45.436 45C 46.2998 45 47 44.3069 47 43.4522L 47 1.54764C 47 0.693085 46.2998 0 45.436 0L 1.56396 0C 0.700195 0 0 0.693085 0 1.54764L 0 43.4522ZM 3.12793 3.09543L 43.8721 3.09543L 43.8721 28.0911L 22.4829 28.0911L 22.4829 22.6223L 28.4854 16.7307C 28.7808 16.4408 28.9473 16.0467 28.9478 15.6352C 28.9487 15.2236 28.7837 14.8287 28.4897 14.5374L 28.4468 14.495L 37.3418 7.89352C 38.0327 7.38068 38.1729 6.4104 37.6548 5.72656C 37.1362 5.04285 36.1562 4.90427 35.4648 5.41696L 26.2124 12.2837L 25.9092 11.9836C 25.4038 11.4839 24.6201 11.3864 24.0059 11.7467L 20.8853 13.5772C 21.0508 13 21.1411 12.3919 21.1411 11.7627C 21.1411 8.09302 18.124 5.10751 14.416 5.10751C 10.707 5.10751 7.69043 8.09302 7.69043 11.7627C 7.69043 13.2848 8.21045 14.688 9.08252 15.8105C 7.54541 17.1385 7.12891 19.1532 6.95996 19.9741C 6.521 22.1065 6.46094 24.8857 6.45312 28.0912L 3.12793 28.0912L 3.12793 3.09543ZM 10.8188 11.7627C 10.8188 13.7256 12.4326 15.3224 14.416 15.3224C 16.3999 15.3224 18.0132 13.7256 18.0132 11.7627C 18.0132 9.79993 16.3999 8.20312 14.416 8.20312C 12.4326 8.20312 10.8188 9.79993 10.8188 11.7627ZM 10.0254 20.592C 10.248 19.5115 10.5459 18.8404 10.8828 18.4177L 18.3384 18.4177C 18.6191 18.4177 18.8945 18.343 19.1357 18.2014L 24.5562 15.0222L 25.1675 15.6273L 19.8179 20.8786C 19.5215 21.1693 19.355 21.5648 19.355 21.9774L 19.355 28.0909L 9.58105 28.0909C 9.58887 25.0564 9.64355 22.4468 10.0254 20.592ZM 43.8716 41.9046L 43.8716 31.1865L 3.12793 31.1865L 3.12793 41.9046L 43.8716 41.9046Z"/>
<path id="path1_fill" d="M 36.427 1.98332L 8.11703 1.98332L 8.11703 1.51668C 8.11703 0.679162 7.41281 0 6.54404 0C 5.67543 0 4.97121 0.679162 4.97121 1.51668L 4.97121 1.98332L 1.57283 1.98332C 0.704216 1.98332 0 2.66248 0 3.5C 0 4.33752 0.704216 5.01668 1.57283 5.01668L 4.97121 5.01668L 4.97121 5.48332C 4.97121 6.32084 5.67543 7 6.54404 7C 7.41281 7 8.11703 6.32084 8.11703 5.48332L 8.11703 5.01668L 36.427 5.01668C 37.2958 5.01668 38 4.33752 38 3.5C 38 2.66248 37.2958 1.98332 36.427 1.98332Z"/>
</defs>
</svg>
