<?xml version="1.0" encoding="UTF-8" standalone="no"?>
<svg width="13px" height="13px" viewBox="0 0 13 13" version="1.1" xmlns="http://www.w3.org/2000/svg" xmlns:xlink="http://www.w3.org/1999/xlink">
    <!-- Generator: Sketch 47.1 (45422) - http://www.bohemiancoding.com/sketch -->
    <title>iconmonstr-help-2</title>
    <desc>Created with Sketch.</desc>
    <defs></defs>
    <g id="Courses" stroke="none" stroke-width="1" fill="none" fill-rule="evenodd">
        <g id="Courses-&gt;-Tutorial-Detail" transform="translate(-33.000000, -366.000000)" fill-rule="nonzero" fill="#000000">
            <g id="iconmonstr-help-2" transform="translate(33.000000, 366.000000)">
                <path d="M6.5,0 C2.910375,0 0,2.910375 0,6.5 C0,10.089625 2.910375,13 6.5,13 C10.089625,13 13,10.089625 13,6.5 C13,2.910375 10.089625,0 6.5,0 Z M6.5,9.88541667 C6.12625,9.88541667 5.82291667,9.58208333 5.82291667,9.20833333 C5.82291667,8.83458333 6.12625,8.53125 6.5,8.53125 C6.87429167,8.53125 7.17708333,8.83458333 7.17708333,9.20833333 C7.17708333,9.58208333 6.87429167,9.88541667 6.5,9.88541667 Z M7.56220833,6.67441667 C7.07254167,7.20254167 7.04925,7.4945 7.05575,7.85416667 L5.96970833,7.85416667 C5.96591667,7.05520833 5.98054167,6.703125 6.74483333,5.97566667 C7.05520833,5.681 7.30004167,5.44754167 7.26591667,4.98929167 C7.2345,4.55325 6.8705,4.32520833 6.52654167,4.32520833 C6.1425,4.32520833 5.69345833,4.61066667 5.69345833,5.41558333 L4.60470833,5.41558333 C4.60470833,4.11558333 5.36791667,3.276 6.54929167,3.276 C7.11045833,3.276 7.60120833,3.459625 7.93054167,3.79329167 C8.23929167,4.106375 8.39908333,4.53645833 8.393125,5.03804167 C8.38445833,5.78716667 7.92891667,6.279 7.56220833,6.67441667 L7.56220833,6.67441667 Z" id="Shape"></path>
            </g>
        </g>
    </g>
</svg>