<?xml version="1.0" encoding="UTF-8" standalone="no"?>
<svg width="13px" height="8px" viewBox="0 0 13 8" version="1.1" xmlns="http://www.w3.org/2000/svg" xmlns:xlink="http://www.w3.org/1999/xlink">
    <!-- Generator: Sketch 47.1 (45422) - http://www.bohemiancoding.com/sketch -->
    <title>iconmonstr-menu-2</title>
    <desc>Created with Sketch.</desc>
    <defs></defs>
    <g id="Courses" stroke="none" stroke-width="1" fill="none" fill-rule="evenodd">
        <g id="Courses-&gt;-Tutorial-Detail" transform="translate(-33.000000, -437.000000)" fill-rule="nonzero" fill="#000000">
            <g id="iconmonstr-menu-2" transform="translate(39.500000, 441.000000) scale(1, -1) translate(-39.500000, -441.000000) translate(33.000000, 437.000000)">
                <path d="M2.16666667,8 L0,8 L0,6.4 L2.16666667,6.4 L2.16666667,8 Z M2.16666667,3.2 L0,3.2 L0,4.8 L2.16666667,4.8 L2.16666667,3.2 Z M2.16666667,0 L0,0 L0,1.6 L2.16666667,1.6 L2.16666667,0 Z M3.79166667,0 L3.79166667,1.6 L13,1.6 L13,0 L3.79166667,0 Z M3.79166667,4.8 L13,4.8 L13,3.2 L3.79166667,3.2 L3.79166667,4.8 Z M3.79166667,8 L13,8 L13,6.4 L3.79166667,6.4 L3.79166667,8 Z" id="Shape"></path>
            </g>
        </g>
    </g>
</svg>