<?xml version="1.0" encoding="UTF-8" standalone="no"?>
<svg width="17px" height="16px" viewBox="0 0 17 16" version="1.1" xmlns="http://www.w3.org/2000/svg" xmlns:xlink="http://www.w3.org/1999/xlink">
    <!-- Generator: Sketch 47.1 (45422) - http://www.bohemiancoding.com/sketch -->
    <title>iconmonstr-pen-3</title>
    <desc>Created with Sketch.</desc>
    <defs></defs>
    <g id="-" stroke="none" stroke-width="1" fill="none" fill-rule="evenodd" opacity="0.308423913">
        <g id="Messages" transform="translate(-548.000000, -76.000000)" fill-rule="nonzero" fill="#000000">
            <g id="iconmonstr-pen-3" transform="translate(548.000000, 76.000000)">
                <path d="M9.543375,4.50618182 C9.24233333,4.18690909 9.25933333,3.68654545 9.56816667,3.37745455 L12.7280417,0.231272727 C12.8824583,0.0778181818 13.0807917,0 13.277,0 C13.47675,0 13.6757917,0.08 13.8266667,0.240727273 L9.543375,4.50618182 L9.543375,4.50618182 Z M4.34845833,12.5214545 C4.28329167,12.5861818 4.25,12.6727273 4.25,12.7592727 C4.25,12.9410909 4.3945,13.0909091 4.573,13.0909091 C4.65375,13.0909091 4.73520833,13.0603636 4.79754167,12.9978182 L5.32808333,12.4676364 L4.87970833,11.992 L4.34845833,12.5214545 L4.34845833,12.5214545 Z M8.83220833,6.39418182 L7.01604167,8.20145455 C6.03995833,9.17309091 5.542,10.1141818 5.08229167,11.4283636 L5.884125,12.2785455 C7.17683333,11.8472727 8.10829167,11.3658182 9.084375,10.3941818 L10.8998333,8.58618182 L8.83220833,6.39418182 L8.83220833,6.39418182 Z M14.1284167,0.824 L9.45058333,5.48218182 L11.8065,7.97963636 L16.4843333,3.32290909 C16.827875,2.98181818 17,2.528 17,2.07345455 C17,0.554909091 15.2079167,-0.250909091 14.1284167,0.824 L14.1284167,0.824 Z M12.75,9.06618182 L12.75,14.5454545 L1.41666667,14.5454545 L1.41666667,5.81818182 L7.09254167,5.81818182 L8.55029167,4.36363636 L0,4.36363636 L0,16 L14.1666667,16 L14.1666667,7.656 L12.75,9.06618182 Z" id="Shape"></path>
            </g>
        </g>
    </g>
</svg>